<?xml version="1.0" encoding="UTF-8" standalone="no"?>
<!-- Created with Inkscape (http://www.inkscape.org/) -->

<svg
   width="210mm"
   height="297mm"
   viewBox="0 0 210 297"
   version="1.1"
   id="svg5"
   xml:space="preserve"
   inkscape:version="1.2.2 (732a01da63, 2022-12-09)"
   sodipodi:docname="Logo Pegasus.svg"
   xmlns:inkscape="http://www.inkscape.org/namespaces/inkscape"
   xmlns:sodipodi="http://sodipodi.sourceforge.net/DTD/sodipodi-0.dtd"
   xmlns="http://www.w3.org/2000/svg"
   xmlns:svg="http://www.w3.org/2000/svg"><sodipodi:namedview
     id="namedview7"
     pagecolor="#ffffff"
     bordercolor="#000000"
     borderopacity="0.25"
     inkscape:showpageshadow="2"
     inkscape:pageopacity="0.0"
     inkscape:pagecheckerboard="0"
     inkscape:deskcolor="#d1d1d1"
     inkscape:document-units="mm"
     showgrid="false"
     inkscape:zoom="0.68684764"
     inkscape:cx="639.8799"
     inkscape:cy="963.09569"
     inkscape:window-width="1920"
     inkscape:window-height="1017"
     inkscape:window-x="-8"
     inkscape:window-y="-8"
     inkscape:window-maximized="1"
     inkscape:current-layer="layer1" /><defs
     id="defs2" /><g
     inkscape:label="Calque 1"
     inkscape:groupmode="layer"
     id="layer1"><path
       id="path365"
       style="fill:#ffffff;fill-opacity:1;stroke:#071c31;stroke-width:0.9;stroke-dasharray:none;stroke-opacity:1"
       d="m 17.266448,91.513083 2.759005,43.037687 71.273169,46.79094 -69.582316,-38.76921 7.519437,27.8505 61.636032,30.5635 -59.903838,-23.82283 23.865727,31.11696 36.40553,3.82509 c 0,0 14.889006,11.89656 22.626526,12.12329 7.73751,0.22673 16.35724,-3.96864 18.85569,-8.72298 9.85921,-18.76126 -0.64242,-33.81517 0.0565,-45.36753 0.31563,-5.21729 6.09625,-9.24135 8.5394,-8.97023 2.44316,0.27111 7.72481,3.32268 9.19841,6.7169 1.47359,3.39422 -0.0786,7.02726 -1.3162,9.82265 -1.23763,2.7954 -5.9045,2.71695 -5.43481,6.44715 0.46969,3.73021 6.80335,8.54054 11.49697,8.20674 4.69362,-0.3338 7.43205,-1.03012 10.8881,-9.33036 8.61709,-20.69528 2.8809,-30.9717 1.48892,-39.57932 -1.39198,-8.60761 -3.89588,-12.04216 -3.89588,-12.04216 l -6.16965,7.31015 c 0,0 -11.77376,-11.02835 -23.40374,-10.71821 -11.62998,0.31014 -11.58891,11.42379 -39.027078,20.45715 0,0 20.586258,20.66065 22.205878,23.91482 1.61962,3.25418 2.36553,13.45322 -0.50798,14.12059 -2.8735,0.66736 -4.18941,-13.26638 -4.18941,-13.26638 z"
       sodipodi:nodetypes="cccccccccssssssssssccscsscc" /><text
       xml:space="preserve"
       style="font-style:italic;font-variant:normal;font-weight:bold;font-stretch:normal;font-size:63.4774px;font-family:Verdana;-inkscape-font-specification:'Verdana, Bold Italic';font-variant-ligatures:normal;font-variant-caps:normal;font-variant-numeric:normal;font-variant-east-asian:normal;opacity:1;fill:#ffffff;fill-opacity:1;stroke:#071c31;stroke-width:0.899999;stroke-dasharray:none;stroke-opacity:1"
       x="162.8367"
       y="220.06197"
       id="text21810"
       transform="scale(0.98601591,1.0141824)"
       inkscape:export-filename="logo pegasus fond blanc.png"
       inkscape:export-xdpi="96"
       inkscape:export-ydpi="96"><tspan
         sodipodi:role="line"
         id="tspan21808"
         style="font-style:italic;font-variant:normal;font-weight:bold;font-stretch:normal;font-size:63.4774px;font-family:Verdana;-inkscape-font-specification:'Verdana, Bold Italic';font-variant-ligatures:normal;font-variant-caps:normal;font-variant-numeric:normal;font-variant-east-asian:normal;stroke-width:0.899999;fill:#ffffff;fill-opacity:1"
         x="162.8367"
         y="220.06197">egasus</tspan></text><path
       id="path365-8"
       style="fill:#ffffff;fill-opacity:1;stroke:#071c31;stroke-width:0.9;stroke-dasharray:none;stroke-opacity:1"
       d="m 18.035097,235.93828 2.759005,43.03769 71.273169,46.79094 -69.582316,-38.76921 7.519437,27.8505 61.636029,30.5635 -59.903835,-23.82283 23.865727,31.11696 36.405528,3.82509 c 0,0 14.889009,11.89656 22.626529,12.12329 7.73751,0.22673 16.35724,-3.96864 18.85569,-8.72298 9.85921,-18.76126 -0.64242,-33.81517 0.0565,-45.36753 0.31563,-5.21729 6.09625,-9.24135 8.5394,-8.97023 2.44316,0.27111 7.72481,3.32268 9.19841,6.7169 1.47359,3.39422 -0.0786,7.02726 -1.3162,9.82265 -1.23763,2.7954 -5.9045,2.71695 -5.43481,6.44715 0.46969,3.73021 6.80335,8.54054 11.49697,8.20674 4.69362,-0.3338 7.43205,-1.03012 10.8881,-9.33036 8.61709,-20.69528 2.8809,-30.9717 1.48892,-39.57932 -1.39198,-8.60761 -3.89588,-12.04216 -3.89588,-12.04216 l -6.16965,7.31015 c 0,0 -11.77376,-11.02835 -23.40374,-10.71821 -11.62998,0.31014 -11.58891,11.42379 -39.027079,20.45715 0,0 20.586259,20.66065 22.205879,23.91482 1.61962,3.25418 2.36553,13.45322 -0.50798,14.12059 -2.8735,0.66736 -4.18941,-13.26638 -4.18941,-13.26638 z"
       sodipodi:nodetypes="cccccccccssssssssssccscsscc"
       inkscape:export-filename="path365-8.png"
       inkscape:export-xdpi="96"
       inkscape:export-ydpi="96" /></g></svg>
